PathFileType	4	(X/Y/Z)	output.trc
DataRate	CameraRate	NumFrames	NumMarkers	Units	OrigDataRate	OrigDataStartFrame	OrigNumFrames
1.0	1.0	134	3	mm	1.0	282	1125
Frame#	Time	Joint1X	Joint1Y	Joint1Z	Joint2X	Joint2Y	Joint2Z	Joint3X	Joint3Y	Joint3Z
										
282	281.00000	-0.06032	1.52597	1.88486	-0.30385	1.44594	1.98762	-0.49516	1.55346	1.92016
283	282.00000	-0.06092	1.52633	1.88483	-0.30267	1.44483	1.99055	-0.49984	1.54531	1.92676
284	283.00000	-0.06145	1.52678	1.88484	-0.30135	1.44362	1.99347	-0.50313	1.53830	1.93296
285	284.00000	-0.06186	1.52729	1.88489	-0.29992	1.44257	1.99642	-0.50536	1.53222	1.93914
286	285.00000	-0.06217	1.52783	1.88496	-0.29844	1.44186	1.99933	-0.50706	1.52638	1.94563
287	286.00000	-0.06240	1.52833	1.88501	-0.29705	1.44160	2.00210	-0.50877	1.51984	1.95253
288	287.00000	-0.06262	1.52875	1.88503	-0.29590	1.44174	2.00456	-0.51087	1.51162	1.95967
289	288.00000	-0.06292	1.52902	1.88506	-0.29515	1.44206	2.00654	-0.51350	1.50102	1.96668
290	289.00000	-0.06344	1.52909	1.88517	-0.29496	1.44218	2.00794	-0.51659	1.48774	1.97308
291	290.00000	-0.06427	1.52895	1.88543	-0.29536	1.44169	2.00873	-0.51987	1.47204	1.97854
292	291.00000	-0.06545	1.52861	1.88590	-0.29627	1.44026	2.00898	-0.52299	1.45467	1.98298
293	292.00000	-0.06695	1.52812	1.88657	-0.29746	1.43769	2.00885	-0.52559	1.43672	1.98660
294	293.00000	-0.06862	1.52755	1.88736	-0.29860	1.43403	2.00852	-0.52736	1.41938	1.98982
295	294.00000	-0.07026	1.52697	1.88812	-0.29933	1.42953	2.00817	-0.52807	1.40359	1.99303
296	295.00000	-0.07166	1.52648	1.88869	-0.29934	1.42455	2.00792	-0.52757	1.38977	1.99651
297	296.00000	-0.07267	1.52612	1.88894	-0.29847	1.41948	2.00782	-0.52580	1.37777	2.00028
298	297.00000	-0.07322	1.52592	1.88878	-0.29676	1.41462	2.00782	-0.52282	1.36694	2.00422
299	298.00000	-0.07337	1.52585	1.88824	-0.29443	1.41015	2.00784	-0.51879	1.35640	2.00821
300	299.00000	-0.07327	1.52583	1.88741	-0.29185	1.40610	2.00778	-0.51401	1.34540	2.01221
301	300.00000	-0.07316	1.52576	1.88643	-0.28940	1.40236	2.00758	-0.50877	1.33346	2.01627
302	301.00000	-0.07324	1.52550	1.88545	-0.28732	1.39867	2.00720	-0.50332	1.32046	2.02041
303	302.00000	-0.07368	1.52494	1.88460	-0.28564	1.39471	2.00669	-0.49775	1.30655	2.02449
304	303.00000	-0.07455	1.52404	1.88393	-0.28419	1.39011	2.00612	-0.49196	1.29195	2.02805
305	304.00000	-0.07581	1.52282	1.88344	-0.28260	1.38460	2.00560	-0.48572	1.27686	2.03045
306	305.00000	-0.07735	1.52136	1.88306	-0.28052	1.37809	2.00519	-0.47874	1.26145	2.03100
307	306.00000	-0.07899	1.51983	1.88273	-0.27770	1.37075	2.00492	-0.47086	1.24591	2.02928
308	307.00000	-0.08054	1.51840	1.88236	-0.27413	1.36299	2.00473	-0.46212	1.23052	2.02534
309	308.00000	-0.08184	1.51723	1.88191	-0.26998	1.35535	2.00451	-0.45274	1.21569	2.01979
310	309.00000	-0.08280	1.51645	1.88136	-0.26557	1.34836	2.00407	-0.44304	1.20183	2.01359
311	310.00000	-0.08338	1.51610	1.88074	-0.26116	1.34236	2.00322	-0.43329	1.18927	2.00775
312	311.00000	-0.08364	1.51618	1.88009	-0.25692	1.33738	2.00181	-0.42359	1.17804	2.00303
313	312.00000	-0.08369	1.51659	1.87947	-0.25283	1.33318	1.99976	-0.41384	1.16791	1.99967
314	313.00000	-0.08367	1.51721	1.87891	-0.24876	1.32932	1.99712	-0.40381	1.15841	1.99737
315	314.00000	-0.08373	1.51787	1.87840	-0.24455	1.32533	1.99407	-0.39331	1.14906	1.99550
316	315.00000	-0.08397	1.51836	1.87794	-0.24010	1.32088	1.99090	-0.38230	1.13950	1.99335
317	316.00000	-0.08442	1.51850	1.87748	-0.23544	1.31585	1.98790	-0.37098	1.12964	1.99038
318	317.00000	-0.08508	1.51815	1.87703	-0.23065	1.31030	1.98532	-0.35966	1.11960	1.98637
319	318.00000	-0.08584	1.51722	1.87660	-0.22583	1.30439	1.98326	-0.34865	1.10964	1.98138
320	319.00000	-0.08660	1.51574	1.87625	-0.22099	1.29830	1.98163	-0.33809	1.10000	1.97567
321	320.00000	-0.08723	1.51380	1.87606	-0.21607	1.29212	1.98021	-0.32792	1.09079	1.96955
322	321.00000	-0.08766	1.51156	1.87610	-0.21100	1.28593	1.97870	-0.31794	1.08202	1.96323
323	322.00000	-0.08790	1.50922	1.87636	-0.20571	1.27979	1.97683	-0.30788	1.07367	1.95682
324	323.00000	-0.08800	1.50698	1.87678	-0.20029	1.27382	1.97445	-0.29759	1.06576	1.95027
325	324.00000	-0.08807	1.50504	1.87723	-0.19487	1.26822	1.97155	-0.28707	1.05844	1.94347
326	325.00000	-0.08824	1.50355	1.87753	-0.18969	1.26323	1.96827	-0.27650	1.05194	1.93625
327	326.00000	-0.08859	1.50256	1.87749	-0.18498	1.25905	1.96476	-0.26617	1.04651	1.92844
328	327.00000	-0.08916	1.50207	1.87701	-0.18092	1.25577	1.96118	-0.25642	1.04232	1.91989
329	328.00000	-0.08993	1.50198	1.87607	-0.17757	1.25332	1.95756	-0.24750	1.03941	1.91051
330	329.00000	-0.09085	1.50211	1.87475	-0.17490	1.25147	1.95385	-0.23957	1.03758	1.90027
331	330.00000	-0.09182	1.50228	1.87317	-0.17276	1.24991	1.94987	-0.23257	1.03652	1.88925
332	331.00000	-0.09278	1.50231	1.87154	-0.17094	1.24833	1.94548	-0.22634	1.03583	1.87767
333	332.00000	-0.09368	1.50211	1.87002	-0.16922	1.24650	1.94059	-0.22058	1.03516	1.86588
334	333.00000	-0.09451	1.50168	1.86874	-0.16744	1.24433	1.93527	-0.21499	1.03428	1.85433
335	334.00000	-0.09525	1.50106	1.86776	-0.16550	1.24191	1.92972	-0.20936	1.03313	1.84347
336	335.00000	-0.09591	1.50036	1.86710	-0.16337	1.23939	1.92422	-0.20361	1.03178	1.83361
337	336.00000	-0.09647	1.49969	1.86669	-0.16111	1.23697	1.91900	-0.19780	1.03040	1.82484
338	337.00000	-0.09694	1.49912	1.86645	-0.15880	1.23479	1.91418	-0.19214	1.02919	1.81695
339	338.00000	-0.09730	1.49868	1.86625	-0.15654	1.23290	1.90967	-0.18684	1.02832	1.80947
340	339.00000	-0.09757	1.49833	1.86597	-0.15440	1.23128	1.90522	-0.18214	1.02791	1.80177
341	340.00000	-0.09778	1.49802	1.86552	-0.15250	1.22985	1.90054	-0.17818	1.02806	1.79326
342	341.00000	-0.09798	1.49773	1.86484	-0.15094	1.22859	1.89537	-0.17502	1.02888	1.78354
343	342.00000	-0.09822	1.49746	1.86392	-0.14987	1.22750	1.88962	-0.17264	1.03048	1.77251
344	343.00000	-0.09854	1.49728	1.86282	-0.14942	1.22671	1.88341	-0.17096	1.03302	1.76039
345	344.00000	-0.09896	1.49729	1.86163	-0.14969	1.22633	1.87698	-0.16983	1.03662	1.74762
346	345.00000	-0.09946	1.49758	1.86044	-0.15067	1.22647	1.87066	-0.16909	1.04131	1.73478
347	346.00000	-0.10001	1.49819	1.85933	-0.15226	1.22716	1.86473	-0.16857	1.04694	1.72239
348	347.00000	-0.10056	1.49907	1.85830	-0.15422	1.22829	1.85934	-0.16814	1.05313	1.71084
349	348.00000	-0.10108	1.50010	1.85734	-0.15625	1.22966	1.85445	-0.16774	1.05937	1.70038
350	349.00000	-0.10152	1.50116	1.85639	-0.15809	1.23103	1.84993	-0.16742	1.06506	1.69107
351	350.00000	-0.10189	1.50210	1.85538	-0.15960	1.23223	1.84551	-0.16734	1.06971	1.68280
352	351.00000	-0.10218	1.50287	1.85431	-0.16076	1.23318	1.84091	-0.16773	1.07310	1.67532
353	352.00000	-0.10241	1.50348	1.85321	-0.16177	1.23398	1.83587	-0.16886	1.07545	1.66821
354	353.00000	-0.10260	1.50400	1.85217	-0.16289	1.23482	1.83017	-0.17091	1.07735	1.66096
355	354.00000	-0.10277	1.50447	1.85128	-0.16438	1.23595	1.82363	-0.17389	1.07972	1.65295
356	355.00000	-0.10294	1.50493	1.85062	-0.16643	1.23757	1.81613	-0.17759	1.08355	1.64355
357	356.00000	-0.10309	1.50530	1.85019	-0.16903	1.23978	1.80760	-0.18159	1.08965	1.63225
358	357.00000	-0.10323	1.50549	1.84990	-0.17202	1.24251	1.79809	-0.18544	1.09838	1.61881
359	358.00000	-0.10332	1.50539	1.84966	-0.17514	1.24558	1.78781	-0.18875	1.10953	1.60341
360	359.00000	-0.10335	1.50499	1.84933	-0.17812	1.24872	1.77728	-0.19137	1.12235	1.58679
361	360.00000	-0.10329	1.50436	1.84884	-0.18078	1.25167	1.76732	-0.19335	1.13575	1.57018
362	361.00000	-0.10314	1.50371	1.84819	-0.18311	1.25420	1.75894	-0.19491	1.14862	1.55516
363	362.00000	-0.10292	1.50329	1.84741	-0.18524	1.25621	1.75312	-0.19620	1.16019	1.54319
364	363.00000	-0.10266	1.50330	1.84654	-0.18740	1.25769	1.75041	-0.19729	1.17035	1.53523
365	364.00000	-0.10239	1.50380	1.84565	-0.18981	1.25882	1.75064	-0.19807	1.17975	1.53128
366	365.00000	-0.10216	1.50469	1.84475	-0.19261	1.25986	1.75275	-0.19841	1.18967	1.53034
367	366.00000	-0.10199	1.50571	1.84386	-0.19579	1.26115	1.75508	-0.19824	1.20159	1.53058
368	367.00000	-0.10187	1.50653	1.84295	-0.19925	1.26302	1.75577	-0.19771	1.21667	1.52999
369	368.00000	-0.10178	1.50694	1.84204	-0.20278	1.26567	1.75350	-0.19715	1.23528	1.52698
370	369.00000	-0.10168	1.50687	1.84113	-0.20617	1.26912	1.74786	-0.19704	1.25671	1.52097
371	370.00000	-0.10153	1.50641	1.84024	-0.20926	1.27320	1.73951	-0.19782	1.27935	1.51247
372	371.00000	-0.10132	1.50579	1.83943	-0.21198	1.27760	1.72986	-0.19983	1.30117	1.50281
373	372.00000	-0.10105	1.50524	1.83879	-0.21437	1.28199	1.72058	-0.20314	1.32041	1.49367
374	373.00000	-0.10075	1.50496	1.83842	-0.21653	1.28612	1.71301	-0.20759	1.33614	1.48649
375	374.00000	-0.10047	1.50504	1.83840	-0.21861	1.28987	1.70790	-0.21284	1.34855	1.48219
376	375.00000	-0.10022	1.50550	1.83882	-0.22073	1.29325	1.70531	-0.21846	1.35873	1.48110
377	376.00000	-0.10002	1.50629	1.83970	-0.22297	1.29639	1.70480	-0.22409	1.36824	1.48303
378	377.00000	-0.09984	1.50739	1.84097	-0.22535	1.29941	1.70575	-0.22945	1.37849	1.48749
379	378.00000	-0.09968	1.50875	1.84254	-0.22782	1.30240	1.70753	-0.23439	1.39021	1.49381
380	379.00000	-0.09949	1.51033	1.84423	-0.23030	1.30534	1.70971	-0.23877	1.40314	1.50122
381	380.00000	-0.09927	1.51205	1.84583	-0.23269	1.30811	1.71207	-0.24240	1.41617	1.50889
382	381.00000	-0.09905	1.51384	1.84716	-0.23491	1.31056	1.71455	-0.24502	1.42765	1.51600
383	382.00000	-0.09883	1.51563	1.84811	-0.23691	1.31255	1.71718	-0.24631	1.43595	1.52179
384	383.00000	-0.09867	1.51734	1.84864	-0.23867	1.31403	1.71993	-0.24607	1.44010	1.52576
385	384.00000	-0.09859	1.51894	1.84882	-0.24024	1.31510	1.72269	-0.24436	1.44006	1.52771
386	385.00000	-0.09860	1.52040	1.84881	-0.24168	1.31598	1.72524	-0.24155	1.43680	1.52781
387	386.00000	-0.09870	1.52172	1.84878	-0.24313	1.31696	1.72737	-0.23829	1.43194	1.52655
388	387.00000	-0.09885	1.52291	1.84892	-0.24468	1.31827	1.72892	-0.23532	1.42720	1.52458
389	388.00000	-0.09902	1.52396	1.84936	-0.24643	1.32004	1.72990	-0.23322	1.42384	1.52256
390	389.00000	-0.09915	1.52487	1.85015	-0.24840	1.32223	1.73051	-0.23230	1.42244	1.52105
391	390.00000	-0.09919	1.52562	1.85131	-0.25059	1.32470	1.73106	-0.23251	1.42277	1.52037
392	391.00000	-0.09912	1.52624	1.85282	-0.25291	1.32723	1.73194	-0.23354	1.42413	1.52068
393	392.00000	-0.09894	1.52674	1.85465	-0.25531	1.32964	1.73347	-0.23495	1.42566	1.52195
394	393.00000	-0.09870	1.52714	1.85679	-0.25774	1.33181	1.73587	-0.23635	1.42669	1.52407
395	394.00000	-0.09845	1.52745	1.85921	-0.26025	1.33371	1.73920	-0.23756	1.42689	1.52691
396	395.00000	-0.09829	1.52768	1.86190	-0.26288	1.33538	1.74333	-0.23862	1.42635	1.53034
397	396.00000	-0.09828	1.52780	1.86477	-0.26571	1.33691	1.74802	-0.23975	1.42544	1.53419
398	397.00000	-0.09845	1.52780	1.86772	-0.26878	1.33839	1.75290	-0.24124	1.42469	1.53827
399	398.00000	-0.09881	1.52768	1.87064	-0.27205	1.33995	1.75759	-0.24335	1.42457	1.54235
400	399.00000	-0.09932	1.52750	1.87338	-0.27542	1.34166	1.76174	-0.24619	1.42545	1.54619
401	400.00000	-0.09996	1.52736	1.87588	-0.27873	1.34361	1.76510	-0.24969	1.42755	1.54960
402	401.00000	-0.10068	1.52738	1.87813	-0.28188	1.34589	1.76756	-0.25368	1.43098	1.55246
403	402.00000	-0.10148	1.52767	1.88020	-0.28482	1.34858	1.76915	-0.25795	1.43573	1.55476
404	403.00000	-0.10237	1.52824	1.88221	-0.28762	1.35177	1.76999	-0.26233	1.44180	1.55659
405	404.00000	-0.10336	1.52903	1.88427	-0.29045	1.35556	1.77024	-0.26669	1.44919	1.55812
406	405.00000	-0.10445	1.52989	1.88647	-0.29352	1.36002	1.77011	-0.27098	1.45787	1.55961
407	406.00000	-0.10559	1.53065	1.88886	-0.29702	1.36521	1.76980	-0.27516	1.46785	1.56137
408	407.00000	-0.10675	1.53116	1.89143	-0.30105	1.37119	1.76951	-0.27915	1.47912	1.56370
409	408.00000	-0.10789	1.53135	1.89414	-0.30565	1.37796	1.76938	-0.28285	1.49163	1.56687
410	409.00000	-0.10899	1.53125	1.89691	-0.31076	1.38556	1.76950	-0.28619	1.50532	1.57096
411	410.00000	-0.11010	1.53096	1.89966	-0.31624	1.39400	1.76983	-0.28915	1.52004	1.57584
412	411.00000	-0.11129	1.53062	1.90228	-0.32191	1.40327	1.77020	-0.29179	1.53560	1.58114
413	412.00000	-0.11266	1.53037	1.90467	-0.32759	1.41335	1.77032	-0.29424	1.55176	1.58634
414	413.00000	-0.11429	1.53030	1.90677	-0.33308	1.42413	1.76991	-0.29661	1.56826	1.59092
415	414.00000	-0.11617	1.53044	1.90852	-0.33819	1.43545	1.76879	-0.29893	1.58482	1.59455
